<?xml version="1.0" encoding="UTF-8"?><svg id="Layer_2" xmlns="http://www.w3.org/2000/svg" viewBox="0 0 273.57 359.2"><defs><style>.cls-1{fill:#fff;stroke-width:0px;}</style></defs><g id="Layer_1-2"><path class="cls-1" d="m210.51,359.2H63.18c-1.04-.87-2.02-1.83-3.14-2.6C-4.66,311.75-19.33,225.44,27.1,161.93c4.45-6.09,9.69-11.59,14.69-17.53-6.87-10.76-13.98-21.6-20.78-32.62-8.92-14.44-12.41-30.29-10.11-47.02C16.2,26.29,46.63.06,85.45.02c34.25-.03,68.49-.04,102.74.03,4.31,0,8.67.19,12.92.85,47.89,7.46,75.81,58.58,55.62,102.71-4.96,10.85-12.28,20.63-18.55,30.88-2.12,3.46-4.35,6.84-6.52,10.26.78.83,1.33,1.43,1.9,2.01,30.3,31.25,43.8,68.67,39.09,111.84-4.51,41.29-24.75,73.83-58.7,97.8-1.21.85-2.3,1.86-3.45,2.79ZM136.85,63.15c-17.3,0-34.6.04-51.91-.02-4.47-.02-8,1.47-10.19,5.5-2.1,3.87-1.68,7.62.66,11.26,6.59,10.21,13.19,20.4,19.69,30.67,1.09,1.73,2.2,1.97,4.04,1.45,25.11-7.22,50.25-7.13,75.37-.04,2.11.6,3.13.06,4.23-1.68,6.25-9.87,12.56-19.7,18.96-29.47,2.56-3.91,3.56-7.85,1.23-12.17-2.34-4.35-6.19-5.56-10.88-5.53-17.07.09-34.14.04-51.21.04Z"/></g></svg>