<?xml version="1.0" encoding="UTF-8"?><svg id="Layer_2" xmlns="http://www.w3.org/2000/svg" viewBox="0 0 359.2 359.2"><defs><style>.cls-1{fill:#fff;stroke-width:0px;}</style></defs><path class="cls-1" d="m0,179.48C.05,80.42,80.54-.01,179.62,0c99.24.01,179.72,80.63,179.58,179.89-.14,99.07-80.72,179.43-179.8,179.31C80.32,359.09-.04,278.58,0,179.48Zm235.7-28.46c1.57.67,2.66,1.09,3.71,1.6,13.78,6.67,28.36,9.98,43.64,10.35,6.41.15,9.34-2.68,9.35-9,.03-12.33.02-24.66,0-37,0-6.52-2.52-9.06-9.09-9.27-25.72-.84-46.48-21.35-47.58-47.03-.3-7.03-2.62-9.25-9.79-9.26-11.85-.02-23.71-.01-35.56,0-7.98,0-10.18,2.23-10.18,10.26,0,52.8,0,105.6,0,158.41,0,1.44.06,2.88-.03,4.31-.79,12.21-6.52,21.29-17.9,25.92-11.2,4.56-21.82,2.59-30.59-5.8-8.65-8.27-11.01-18.57-7.32-29.97,3.58-11.05,13.6-18.5,25.25-19.27,6.12-.4,9.11-2.81,9.15-7.85.1-13.29.09-26.58,0-39.87-.03-4.64-3.09-7.59-7.78-7.55-3.7.03-7.41.29-11.09.73-46,5.47-79.45,49.84-72.2,95.72,5.91,37.41,35.3,65.63,73.77,70.82,35.63,4.81,71.9-15.75,86.98-49.34,5.02-11.19,7.33-22.93,7.29-35.2-.09-23.7-.03-47.4-.03-71.72Z"/></svg>