<?xml version="1.0" encoding="UTF-8"?><svg id="Layer_2" xmlns="http://www.w3.org/2000/svg" viewBox="0 0 359.2 359.2"><defs><style>.cls-1{fill:#fff;stroke-width:0px;}</style></defs><path class="cls-1" d="m168.37,0c7.48,0,14.96,0,22.44,0,.9.2,1.79.51,2.7.57,27.96,2.09,54.12,10.11,77.97,24.79,46.34,28.53,74.89,69.57,84.89,123.23,1.21,6.52,1.85,13.14,2.75,19.72v22.44c-.2.9-.51,1.8-.58,2.71-2.11,27.59-10.35,53.22-24.23,77.14-35.79,61.7-108.1,97.02-178.7,86.87-47.97-6.89-87.32-29.29-117.26-67.37C8.7,252.4-3.55,209.19,1,161.53c3.65-38.23,18.49-71.93,44-100.67C72.87,29.47,107.55,9.93,149,2.71,155.42,1.59,161.91.89,168.37,0Zm-92.41,179.63c.65,17.05.67,34.26,2.1,51.35,2.18,26.13,20.41,45.71,46.25,49.39,13,1.85,26.31,2.08,39.48,2.08,22.31,0,44.67.1,66.9-1.47,20.62-1.46,36.3-12.02,45.37-31.15,3.96-8.35,5.73-17.32,5.87-26.49.37-24.19.58-48.38.59-72.56,0-7.58-.52-15.19-1.29-22.73-2.68-26.19-20.4-45.6-46.36-49.36-12.88-1.86-26.08-2.08-39.13-2.08-22.42,0-44.9-.11-67.25,1.43-27.87,1.91-48.14,22.5-50.46,50.34-1.41,16.98-1.42,34.07-2.07,51.25Z"/><path class="cls-1" d="m94.75,179.43c.45-15.58.5-31.13,1.43-46.63,1.32-21.79,14.91-35.46,36.69-36.69,31.27-1.77,62.6-1.78,93.87.03,21.3,1.23,35.55,15.01,36.12,36.4.82,31.16.86,62.37.02,93.53-.59,22.02-14.74,36.17-36.77,36.77-31.04.84-62.13.83-93.17,0-21.84-.59-35.46-14.75-36.76-36.5-.94-15.62-.99-31.28-1.44-46.9Zm84.79-52.8c-29.22.04-52.75,23.53-52.86,52.76-.1,29.29,23.64,53.07,52.95,53.03,29.21-.04,52.75-23.53,52.85-52.77.11-29.31-23.61-53.06-52.94-53.02Zm67.4-2.2c-.03-6.77-5.46-12.21-12.22-12.25-6.95-.05-12.44,5.43-12.41,12.39.03,6.8,5.41,12.2,12.2,12.24,6.95.04,12.46-5.45,12.44-12.37Z"/><path class="cls-1" d="m179.48,213.88c-18.87-.05-34.25-15.49-34.24-34.38.01-19.03,15.58-34.46,34.64-34.33,18.87.13,34.15,15.63,34.06,34.55-.09,18.88-15.55,34.21-34.46,34.16Z"/></svg>