<?xml version="1.0" encoding="UTF-8"?><svg id="Layer_2" xmlns="http://www.w3.org/2000/svg" viewBox="0 0 359.2 359.2"><defs><style>.cls-1{fill:#fff;stroke-width:0px;}</style></defs><path class="cls-1" d="m168.34,0C175.82,0,183.3,0,190.79,0c.9.2,1.79.51,2.7.57,27.96,2.09,54.14,10.12,77.99,24.8,46.36,28.54,74.91,69.59,84.92,123.27,1.22,6.52,1.85,13.15,2.75,19.72v22.45c-.52,4.28-.95,8.56-1.58,12.83-7.09,48.23-29.55,87.79-68,117.7-39.45,30.69-84.51,42.61-133.99,36.16-42.31-5.51-78.36-24.19-107.27-55.6C10.11,260.41-5.3,211.19,1.68,155.32c4.48-35.85,19.24-67.43,43.25-94.44C72.82,29.49,107.5,9.94,148.96,2.71,155.38,1.59,161.88.89,168.34,0Zm-86.07,244.46c1,.74,1.66,1.34,2.42,1.77,36.77,20.63,74.92,23.01,112.43,4.16,42.67-21.44,62.74-58.34,64.43-105.57.12-3.48.96-5.7,3.76-7.82,6.33-4.78,11.57-10.67,16.13-17.41-7.27,1.97-14.22,3.85-21.16,5.73l-.41-.95c7.62-5.37,13.32-12.16,16.17-20.69-7.52,2.66-15.07,5.28-22.58,8.02-2.17.79-3.56.18-5.25-1.33-12.34-11-26.62-14.02-42.03-8.36-15.56,5.72-24.56,17.38-26.66,33.92-.58,4.53-.09,9.2-.09,14.01-33.96-2.39-61.88-16.79-84.46-43.16-9.89,21.73-5.76,39.74,11.98,54.9-.17.25-.35.5-.52.75-5.65-1.6-11.31-3.21-16.91-4.8-1.17,16.85,9.92,31.14,31.22,40.78h-17.1c6.94,17.7,19.5,26.93,37.86,28.83-12.57,11.52-31.2,16.9-59.21,17.22Z"/></svg>