<?xml version="1.0" encoding="UTF-8"?><svg id="Layer_2" xmlns="http://www.w3.org/2000/svg" viewBox="0 0 359.2 359.2"><defs><style>.cls-1{fill:#fff;stroke-width:0px;}</style></defs><path class="cls-1" d="m.24,191.01c0-7.48,0-14.95,0-22.43.43-3.34.87-6.67,1.29-10.01,5.98-47.6,27.4-86.96,64.34-117.35C123.99-6.59,204.07-13.66,268.93,24.48c57.86,34.03,87.91,85.81,89.95,153,1.11,36.71-9.12,70.69-29.65,101.17-28.52,42.34-68.05,68.38-118.33,77.76-6.62,1.24-13.36,1.87-20.04,2.78h-22.43c-.9-.2-1.78-.51-2.69-.58-35.74-2.85-67.91-15.09-96.08-37.24C33.4,292.89,11.03,255.85,2.92,210.37c-1.14-6.41-1.8-12.9-2.68-19.36Zm199.8,120.39v-120.07h46.13v-46.89h-45.71c0-12.32-.58-24.25.17-36.09.65-10.31,6.49-15.48,16.87-16.13,8.73-.55,17.5-.36,26.25-.5,1.35-.02,2.7,0,4.17,0v-43.55c-14.22,0-28.26-.74-42.2.15-30.83,1.97-50.85,21.59-53.38,52.24-1.08,13.11-.52,26.36-.71,39.55-.02,1.36,0,2.71,0,4.5h-40.19v46.84h40.28v119.94h48.31Z"/></svg>