<?xml version="1.0" encoding="UTF-8"?><svg id="Layer_1" xmlns="http://www.w3.org/2000/svg" viewBox="0 0 289.75 195.79"><defs><style>.cls-1{fill:#911d22;}.cls-1,.cls-2{stroke-width:0px;}.cls-2{fill:#fff;}</style></defs><polygon class="cls-2" points="15.99 69.08 63.57 48.99 91.07 51.1 104.29 15.68 107.8 27.63 104.92 36.62 103.23 31.54 92.66 57.98 65.16 55.86 15.99 69.08"/><path class="cls-2" d="m101.12,52.69l16.92-39.13,5.29,58.16-17.98,75.08-24.32-3.17s-12.69,2.11-19.03,10.58c0,0-3.17-14.8,8.46-29.61,0,0,2.11-6.34,0-17.98l8.46,12.69s-11.63,14.8-12.69,25.38c0,0,7.4-6.34,11.63-6.34s20.09,1.06,20.09,1.06l-3.17-11.63,6.34,9.52,14.8-67.68-2.11-35.95-12.69,19.03Z"/><path class="cls-2" d="m83.23,80.04l-6.54-10.96h-27.7s6.35,11.54,22.13,10.96c0,0-8.47-1.44-16.16-7.89l20.01,1.06,8.27,6.83Z"/><path class="cls-2" d="m92.46,78.02c-.61-.81,9.27,2.04,9.27,2.04l-1.92,14.31s-2.18-9.43-7.34-16.35"/><path class="cls-2" d="m147.16,79.42h-4.02v16.21h-12.54v-46.65h16.56c6.01,0,11.66,3.79,11.66,9.68v11.08c0,5.95-5.66,9.68-11.66,9.68Zm-.06-19.12c0-1.34-.82-1.87-2.16-1.87h-1.81v11.55h1.81c1.34,0,2.16-.53,2.16-1.87v-7.81Z"/><path class="cls-2" d="m198.82,95.63h-9.91l-3.85-21.46-3.91,21.46h-10.44l-10.44-46.65h12.42l3.85,23.38,4.37-23.38h8.22l4.37,23.38,4.37-23.38h11.31l-10.38,46.65Z"/><path class="cls-2" d="m230.89,95.63c-.93-2.04-1.57-4.78-1.57-7.23v-8.28c0-1.05-.87-2.45-2.62-2.45h-2.86v17.96h-12.54v-46.65h17.78c6.06,0,11.72,3.79,11.72,9.68v8.4c0,2.22-1.63,4.78-4.84,6.01,3.21,1.22,5.07,3.85,5.07,6.06v8.69c0,2.97.82,5.54,1.63,7.81h-11.78Zm-1.87-35.33c0-1.34-.76-1.87-2.16-1.87h-3.03v10.38h3.03c1.4,0,2.16-.52,2.16-1.87v-6.65Z"/><path class="cls-1" d="m154.1,146.66l-1.33-2.44c-1.06,1.5-5.11,3.56-8.56,3.56-8.67,0-13.61-5.44-13.61-10.44v-25.78c0-4.56,6.11-10.44,15.17-10.44s14.94,5.89,14.94,10.44v7.39h-12.33v-6.11c0-1.17-1.11-1.89-2.61-1.89s-2.67.72-2.67,1.89v22.94c0,1.17,1.11,2.17,3,2.17,2.06,0,3-1,3-2.17v-4.39h-3.33v-7h15.28v22.28h-6.94Z"/><path class="cls-1" d="m184.93,127.5v19.17h-11.94v-19.17l-10.44-25.28h12.28l4.89,14.83,4.33-14.83h11.78l-10.89,25.28Z"/><path class="cls-1" d="m228.82,146.66v-30l-6.44,30h-8.11l-5.94-30v30h-10.67v-44.44h16.39l5.11,21.39,5-21.39h16.61v44.44h-11.94Z"/></svg>