<?xml version="1.0" encoding="UTF-8"?><svg id="Layer_2" xmlns="http://www.w3.org/2000/svg" viewBox="0 0 359.23 359.19"><defs><style>.cls-1{fill:#fff;stroke-width:0px;}</style></defs><g id="Layer_1-2"><path class="cls-1" d="m359.2,183.27c-2.24,98.46-82.69,177.53-182.61,175.89C77.33,357.53-2.05,276.16.04,175.78,2.11,76.37,83.96-2.22,183.86.05c98.33,2.23,177.12,83.66,175.34,183.23Zm-323.33-3.81c.02,79.3,64.26,143.79,143.28,143.86,79.55.06,144.03-64.26,144.15-143.8.12-79-64.45-143.62-143.5-143.63-79.46-.01-143.95,64.32-143.93,143.58Z"/><path class="cls-1" d="m77.35,262c-39.92-46.84-38.58-120.09.17-164.92,6.82,8.95,13.62,17.85,20.41,26.75,7.94,10.41,15.84,20.84,23.82,31.21,1.39,1.81,1.93,3.32,1.11,5.72-4.3,12.55-4.12,25.18-.13,37.82.44,1.4.35,3.59-.46,4.68-14.54,19.32-29.23,38.53-43.9,57.76-.28.37-.67.65-1.02.98Z"/><path class="cls-1" d="m281.85,97.08c39.38,47.06,38.99,118.61-.07,165.09-1.91-2.47-3.8-4.88-5.65-7.3-12.93-16.95-25.83-33.91-38.79-50.84-1.3-1.69-1.87-3.1-1.09-5.38,4.36-12.67,4.22-25.41.15-38.18-.44-1.37-.22-3.54.62-4.65,14.47-19.22,29.08-38.33,43.67-57.46.3-.39.67-.73,1.16-1.27Z"/><path class="cls-1" d="m198.17,122.73c-12.51-3.95-24.64-3.96-37.14,0-19.33-16.43-38.78-32.96-58.26-49.51,39.7-31.08,105.35-36.13,153.84-.17-19.49,16.57-38.9,33.08-58.44,49.69Z"/><path class="cls-1" d="m102.58,286.17c14.18-12.06,28.14-23.92,42.1-35.79,4.75-4.04,9.43-8.17,14.3-12.06,1.05-.84,2.96-1.42,4.19-1.09,11.63,3.16,23.15,2.98,35.01-.74,19.33,16.42,38.78,32.95,58.26,49.5-39.46,30.88-104.96,36.31-153.84.17Z"/><path class="cls-1" d="m131.69,179.34c.06-26.3,21.6-47.64,48.06-47.64,26.23,0,47.82,21.7,47.74,47.98-.09,26.41-21.57,47.86-47.89,47.81-26.58-.05-47.98-21.55-47.91-48.15Zm71.84.24c.02-13.2-10.8-23.96-24.06-23.92-13.06.03-23.77,10.71-23.83,23.77-.07,13.25,10.67,24.11,23.86,24.13,13.23.01,24.02-10.75,24.03-23.97Z"/><path class="cls-1" d="m85.39,87.62c2.59-2.46,4.91-4.67,7.48-7.11,18.75,15.94,37.33,31.73,55.39,47.09-6.35,5.96-12.48,11.73-18.88,17.74-14.32-18.8-29.01-38.06-43.99-57.72Z"/><path class="cls-1" d="m129.37,213.87c6.47,6.07,12.6,11.81,18.91,17.72-18.07,15.37-36.58,31.1-55.4,47.11-2.48-2.36-4.87-4.64-7.47-7.12,14.88-19.54,29.59-38.85,43.97-57.72Z"/><path class="cls-1" d="m229.81,145.35c-6.47-6.07-12.59-11.82-18.89-17.74,18.07-15.36,36.57-31.09,55.38-47.09,2.48,2.35,4.88,4.63,7.48,7.1-14.89,19.55-29.6,38.85-43.97,57.73Z"/><path class="cls-1" d="m229.8,213.85c14.48,19.01,29.06,38.14,43.87,57.58-2.37,2.35-4.71,4.67-7.33,7.27-18.71-15.9-37.29-31.69-55.41-47.09,6.39-6.01,12.59-11.85,18.87-17.76Z"/><path class="cls-1" d="m179.51,191.56c-6.52-.04-11.87-5.41-11.88-11.94,0-6.67,5.52-12.09,12.22-11.98,6.45.11,11.81,5.66,11.7,12.13-.11,6.54-5.51,11.82-12.04,11.78Z"/></g></svg>