<?xml version="1.0" encoding="UTF-8"?><svg id="Layer_2" xmlns="http://www.w3.org/2000/svg" viewBox="0 0 285.34 359.2"><defs><style>.cls-1{fill:#fff;stroke-width:0px;}</style></defs><g id="Layer_1-2"><path class="cls-1" d="m69.55,240.81c8.09-7.76,17.21-13.4,27.6-16.91,20.82-7.02,40.38-3.28,58.98,7.3,15.15,8.62,27.27,20.48,36.41,35.35.55.89,1.04,1.84,1.74,2.6,1.83,2.01,4.11,2.76,6.59,1.42,2.36-1.27,3.66-3.38,2.86-6.1-.54-1.86-1.37-3.74-2.47-5.32-9.17-13.17-19.68-25.05-33.25-33.92-.84-.55-1.9-1.28-2.13-2.13-1.67-6.13-3.14-12.32-4.77-18.83,14.35-2.74,27.1-8.34,38.31-17.23,11.12-8.81,19.49-19.79,25.52-33.24,1.86,2.95,3.48,5.46,5.02,8.01,18.07,29.83,31.59,61.81,44.65,94.02,2.09,5.16,4.28,10.29,6.76,15.26,9.64,19.34,1.7,48.95-24.67,54.35-16.44,3.37-31.65,9.48-46.95,16.07-28.3,12.18-58.09,18.03-88.95,17.67-15.31-.18-30.17-3.31-44.91-7.45-15.07-4.23-30.43-7.44-45.6-11.34-7.63-1.96-15.19-4.22-22.64-6.78-5.31-1.82-7.74-5.45-7.67-11.69.34-30.48.15-60.96.15-91.44,0-7.36.83-8.38,8.1-9.36,22.54-3.06,42.31,3.1,59.4,18.04.52.46,1.05.91,1.9,1.65Zm56.26,91.29c10.36-1.23,20.79-2.11,31.07-3.79,7.42-1.22,14.68-3.43,21.96-5.36,3.8-1.01,5.56-3.81,4.73-6.91-.89-3.37-3.84-4.83-7.7-3.82-.9.24-1.78.53-2.67.78-30.04,8.61-60.06,10.62-90.05-.25-3.86-1.4-7.02,0-8.04,3.19-1.03,3.25.62,5.98,4.52,7.4,14.89,5.41,30.27,7.99,46.17,8.76Z"/><path class="cls-1" d="m220.67,97.64c-.1,52.67-44.46,96.67-97.53,96.74-53.06.07-98.38-44.29-97.2-96.73C27.37,33.6,74.2-.13,123.46,0c50.08.13,95.21,34.81,97.21,97.64Zm-133.77-.56c.06,20.92,15.93,36.82,36.52,36.59,20.81-.23,36.24-15.98,36.19-36.95-.05-20.92-15.78-36.62-36.55-36.48-20.86.14-36.22,15.79-36.16,36.83Z"/><path class="cls-1" d="m144.96,97.1c-.08,12.06-10.09,22.03-21.93,21.85-11.97-.18-21.59-10.15-21.5-22.27.08-12.18,9.84-21.85,21.93-21.73,12.06.12,21.59,9.93,21.51,22.16Z"/></g></svg>