<?xml version="1.0" encoding="UTF-8"?><svg id="Layer_2" xmlns="http://www.w3.org/2000/svg" viewBox="0 0 262.07 358.5"><defs><style>.cls-1{fill:#fff;stroke-width:0px;}</style></defs><g id="Layer_1-2"><path class="cls-1" d="m81.38,0c-1.66.45-3.3.93-4.97,1.34-22.19,5.45-35.92,26.2-32.82,49.62,2.78,21.01,22.48,37.44,44.34,36.84,1.97-.05,2.78.44,3.59,2.25,8.99,20.23,18.05,40.42,27.24,60.55,1.18,2.59,1.22,4.66.41,7.46-2.11,7.26-3.89,14.65-5.16,22.1-6.19,36.16-19.33,70.21-31.5,104.55-2.18,6.15-4.46,12.26-6.47,18.46-.7,2.15-1.89,3.13-3.95,3.84-20.05,6.88-40.07,13.85-60.08,20.84-8.78,3.07-13.31,10.21-11.67,18.18,1.94,9.43,11.13,14.6,20.7,11.37,14.12-4.77,28.18-9.74,42.26-14.63,9.02-3.13,18-6.4,27.07-9.39,6.15-2.02,9.96-6,12.05-12.08,5.42-15.75,11.04-31.43,16.58-47.13.38-1.08.8-2.15,1.34-3.61,6.32,1.53,12.52,3.03,18.71,4.53,7.25,1.75,14.48,3.57,21.76,5.17,2.37.52,3.4,1.6,4.01,3.97,5.26,20.17,10.73,40.29,16.01,60.46,1.61,6.15,4.62,10.99,10.92,13,5.69,1.81,10.9.56,15.24-3.49,4.61-4.3,5.75-9.74,4.18-15.72-5.08-19.26-10.23-38.5-15.35-57.75-1.32-4.95-2.64-9.9-3.91-14.87-1.82-7.14-6.32-11.42-13.49-13.09-8.15-1.89-16.27-3.93-24.78-6,1.29-3.63,2.52-6.98,3.68-10.36,3.93-11.45,8.46-22.75,11.55-34.42,2.64-9.97,3.76-20.37,5.19-30.63.31-2.25-.26-5.17-1.56-6.97-2.81-3.9-.37-7.1.58-10.49.17-.61,1.66-1.05,2.61-1.23,14.44-2.71,24.06-11.04,27.83-25.2,3.55-13.33-.29-24.89-10.5-34.18-1.53-1.39-2.01-2.53-1.27-4.49.94-2.48,1.53-5.09,2.18-7.29,5.5,1.88,10.62,4.15,15.97,5.38,25.28,5.81,51.31-14.46,52.15-40.36.76-23.6-13.94-41.73-37.28-45.99-.43-.08-.83-.37-1.24-.56-3.03,0-6.07,0-9.1,0-.32.14-.62.36-.96.41-19.2,2.76-31.67,13.46-37.43,31.92-.71,2.29-2,2.4-3.86,2.4-12.93-.04-25.85-.09-38.78.04-2.66.03-3.76-.77-4.55-3.4-3.79-12.6-11.7-21.86-23.77-27.17C100.67,2.26,95.82,1.37,91.18,0c-3.27,0-6.54,0-9.8,0Zm65.52,153.03c-11.25-24.98-22.28-49.47-33.41-74.17,8.43-6.69,14.07-15.15,16.49-25.63,14.21,0,28.07,0,41.94,0,4.05,0,4.33.34,3.23,4.21-2.37,8.28-4.86,16.52-7.15,24.83-.59,2.13-1.7,2.85-3.81,3.28-12.67,2.55-21.53,9.98-25.71,22.13-4.41,12.8-1.91,24.6,7.29,34.73,3.97,4.37,4.04,4.31,1.13,10.63Zm-42.85-100.05c-5.83,9.19-14.11,12.36-23.11,9.5-8.39-2.67-14.01-10.77-13.52-19.5.5-8.93,6.93-16.37,15.72-18.22,8.14-1.71,16.67,2.31,20.49,10.16-5.41-.27-10.48-.46-15.54-.8-4.24-.28-7.58,1.16-9.71,4.87-2.04,3.55-1.91,7.21.39,10.57,2.39,3.49,5.85,4.63,10.06,4.24,4.81-.45,9.66-.54,15.2-.82Zm97.57-18.09c3.78-8.26,13.13-12.19,21.81-9.71,9.64,2.75,15.26,11.4,14.09,21.67-1.03,8.98-9.26,16.36-18.74,16.67-6.77.22-15.74-4.37-16.67-10.45,4.7.21,9.31.41,13.92.63.46.02.92.17,1.38.2,4.09.21,7.31-1.39,9.38-4.9,1.99-3.38,1.95-6.94-.15-10.27-2.27-3.59-5.62-4.91-9.87-4.57-4.92.4-9.87.5-15.13.75Z"/></g></svg>